<svg xmlns="http://www.w3.org/2000/svg" viewBox="0 0 256 256">
  <defs>
    <linearGradient id="grad" x1="0%" y1="0%" x2="100%" y2="100%">
      <stop offset="0%" style="stop-color:#FF6B35;stop-opacity:1"/>
      <stop offset="50%" style="stop-color:#E63E8D;stop-opacity:1"/>
      <stop offset="100%" style="stop-color:#8B5CF6;stop-opacity:1"/>
    </linearGradient>
  </defs>
  <path d="M60 80 L60 176 L80 176 L80 140 L100 140 C120 140 130 130 130 110 C130 90 120 80 100 80 Z M80 100 L100 100 C105 100 110 105 110 110 C110 115 105 120 100 120 L80 120 Z" fill="url(#grad)"/>
  <rect x="145" y="80" width="20" height="96" fill="url(#grad)"/>
  <path d="M180 80 L180 176 L200 176 L200 140 L220 140 L220 176 L240 176 L240 80 L220 80 L220 120 L200 120 L200 80 Z" fill="url(#grad)"/>
</svg>